<svg id="Layer_1" xmlns="http://www.w3.org/2000/svg" viewBox="0 0 176 47" style="enable-background:new 0 0 176 47;" class="svg-convert inlined-svg" border="0" role="img" aria-labelledby="_b3k3qeese"><title id="_b3k3qeese">Stricker-Europe</title>
<style type="text/css">
	.st0{fill:#222221;}
	.st1{fill:url(#SVGID_1_);}
</style>
<g>
	<g>
		<g>
			<path class="st0" d="M176,35.7l-6.2-11c1.6-0.6,3.1-1.9,3.8-2.9c0.3-0.5,0.6-1.1,0.8-1.7c0.2-0.6,0.3-1.3,0.3-2     c0-1-0.2-1.9-0.5-2.8c-0.3-0.8-0.8-1.6-1.5-2.2c-0.7-0.6-1.4-1.1-2.3-1.4c-0.9-0.3-1.9-0.5-3-0.5h-9.8v24.4h3.3v-8.4l5.8-1.6     l5.5,10L176,35.7z M160.8,14.2h6.1c0.9,0,1.6,0.2,2.2,0.4c0.6,0.3,1.1,0.6,1.4,1c0.4,0.4,0.6,0.8,0.7,1.3     c0.1,0.5,0.2,0.9,0.2,1.4c0,0.6-0.4,2.9-3.5,3.7l-7.1,2V14.2z"></path>
			<polygon class="st0" points="60.5,14.2 53.1,14.2 53.1,11.3 71.3,11.3 71.3,14.2 63.8,14.2 63.8,35.7 60.5,35.7    "></polygon>
			<rect x="93.5" y="11.3" class="st0" width="3.3" height="24.4"></rect>
			<path class="st0" d="M110.6,33.2c1,0,2-0.1,2.9-0.3c0.9-0.2,1.8-0.5,2.6-0.9l0.6-0.3l1.2,2.6l-0.5,0.3c-0.6,0.3-1.2,0.6-1.8,0.8     c-0.6,0.2-1.3,0.4-1.9,0.5c-0.6,0.1-1.3,0.2-1.9,0.2c-0.6,0.1-1.2,0.1-1.8,0.1c-1.6,0-3.1-0.2-4.4-0.7c-1.3-0.5-2.4-1.2-3.3-2.2     c-0.9-1-1.6-2.3-2-3.8c-0.5-1.5-0.7-3.4-0.7-5.5c0-2,0.3-3.7,0.8-5.3c0.5-1.6,1.2-3,2.2-4.1c0.9-1.1,2.1-2,3.4-2.6     c1.3-0.6,2.8-0.9,4.4-0.9c1,0,2,0.1,3.1,0.3c1.1,0.2,2.2,0.6,3.4,1.2l0.5,0.2l-1.3,2.6l-0.4-0.2c-1.6-0.7-3.3-1.1-5.1-1.1     c-1.3,0-2.5,0.3-3.4,0.8c-0.9,0.6-1.7,1.3-2.3,2.2c-0.6,0.9-1.1,2-1.3,3.2c-0.3,1.2-0.4,2.4-0.4,3.7c0,1.3,0.1,2.5,0.4,3.6     c0.2,1.1,0.7,2.1,1.3,2.9c0.6,0.8,1.4,1.5,2.4,2C107.9,32.9,109.1,33.2,110.6,33.2"></path>
			<polygon class="st0" points="119.6,11.3 122.7,11.3 122.7,24.4 126.3,19.8 133,11.3 137,11.3 130,20 138.8,35.7 134.9,35.7      127.8,22.6 122.7,29.1 122.7,35.7 119.6,35.7    "></polygon>
			<path class="st0" d="M155.6,35.7h-10.5c-1.1,0-2.1-0.2-2.9-0.5c-0.8-0.3-1.4-0.8-1.8-1.3c-0.5-0.5-0.8-1.2-1-1.9     c-0.2-0.7-0.3-1.5-0.3-2.3V17.3c0-0.8,0.1-1.6,0.3-2.3c0.2-0.7,0.6-1.4,1-1.9c0.5-0.5,1.1-1,1.8-1.3c0.7-0.3,1.7-0.5,2.7-0.5     h10.4v2.9l-10.3,0c-1,0-1.7,0.2-2.1,0.7c-0.4,0.4-0.7,1.1-0.7,2v4.6h11.8v2.7h-11.8v6.1c0,0.8,0.2,1.4,0.6,1.9     c0.4,0.5,1.1,0.7,2.1,0.7h10.3V35.7z"></path>
			<path class="st0" d="M52.4,26.5c-0.4-0.8-0.9-1.4-1.6-2c-0.7-0.6-1.4-1-2.3-1.4c-0.9-0.4-1.8-0.8-2.8-1.2c-1-0.4-1.9-0.8-2.7-1.1     c-0.8-0.3-1.4-0.7-1.9-1c-0.5-0.3-0.9-0.7-1.1-1.1c-0.2-0.4-0.3-0.8-0.4-1.3c0.1-0.9,0.4-1.6,1.1-2.2c0.8-0.6,1.8-0.9,3.2-0.9     c0,0,0,0,0,0h7.6v-2.9h-7.5c0,0,0,0-0.1,0c0,0,0,0,0,0h-0.1c0,0,0,0,0,0c-2.5,0-4.3,0.6-5.6,1.8c-1,0.9-1.7,2.1-1.9,3.5     c-0.1,0.3-0.1,0.7-0.1,1c0,0.2,0,0.4,0,0.6c0.1,0.6,0.2,1.1,0.4,1.5c0.3,0.7,0.8,1.3,1.4,1.8c0.6,0.6,1.4,1.1,2.4,1.5     c1,0.5,2.1,0.9,3.4,1.4c1,0.3,1.8,0.7,2.5,1c0.7,0.3,1.3,0.7,1.8,1.1c0.5,0.4,0.8,0.8,1.1,1.3c0.2,0.5,0.4,1,0.4,1.6     c0,1.3-0.5,2.2-1.5,2.9c-1,0.7-2.4,1-4.1,1c-1.1,0-2.2-0.1-3.5-0.4c-1.3-0.3-2.5-0.7-3.7-1.2c-0.3-0.1-0.4-0.2-0.4-0.2l-1.2,2.7     c0,0,0.1,0.1,0.4,0.2c0.7,0.4,1.4,0.6,2.2,0.9c0.8,0.2,1.5,0.4,2.3,0.6c0.8,0.1,1.5,0.2,2.3,0.3c0.7,0.1,1.5,0.1,2.1,0.1     c1.2,0,2.3-0.1,3.4-0.4c1-0.3,1.9-0.7,2.7-1.3c0.8-0.6,1.4-1.3,1.8-2.2c0.4-0.9,0.7-1.9,0.7-3C53,28.2,52.8,27.2,52.4,26.5z"></path>
			<path class="st0" d="M91.3,35.7l-6.2-11c1.6-0.6,3.1-1.9,3.8-2.9c0.3-0.5,0.6-1.1,0.8-1.7c0.2-0.6,0.3-1.3,0.3-2     c0-1-0.2-1.9-0.5-2.8c-0.3-0.8-0.8-1.6-1.5-2.2c-0.7-0.6-1.4-1.1-2.3-1.4c-0.9-0.3-1.9-0.5-3-0.5h-9.8v24.4H76v-8.4l5.8-1.6     l5.5,10L91.3,35.7z M76,14.2h6.1c0.9,0,1.6,0.2,2.2,0.4c0.6,0.3,1.1,0.6,1.4,1c0.4,0.4,0.6,0.8,0.7,1.3c0.1,0.5,0.2,0.9,0.2,1.4     c0,0.6-0.4,2.9-3.5,3.7L76,24V14.2z"></path>
		</g>
	</g>
	<linearGradient id="SVGID_1_" gradientUnits="userSpaceOnUse" x1="4.5024" y1="12.6194" x2="26.2467" y2="34.3637">
		<stop offset="0" style="stop-color:#0082BE"></stop>
		<stop offset="0.3866" style="stop-color:#2A92A0"></stop>
		<stop offset="1" style="stop-color:#74AE6C"></stop>
	</linearGradient>
	<path class="st1" d="M3.7,13.5c-0.7,0.8-1.3,1.7-1.8,2.6C0.6,18.3,0,20.9,0,23.4c0,2.4,0.5,4.8,1.6,7l1.2-0.1l2-0.2c0,0,0,0,0,0h0   C2,25.6,2.3,19.6,5.9,15.4c4-4.6,10.7-5.6,15.8-2.6l-2.5,2.5L15,19.4c-0.8,0.8-1.1,1.6-1.2,2.2c-0.1,0.5-0.1,0.8-0.1,0.8v1v0.3   c0,0.2,0,0.4-0.1,0.6c-0.2,1-0.9,1.8-0.9,1.8s0,0,0,0l-8.1,8.1h0c-0.1,0.1,0,0.1,0.1,0.3c0,0,0.5,0.4,0.7,0.6c0,0,0,0,0,0   c2.9,2.5,6.5,3.7,10.1,3.7c4.3,0,8.6-1.9,11.6-5.4v0c0.7-0.8,1.3-1.7,1.8-2.6c0,0,0,0,0,0c0,0,0,0,0,0c1.2-2.3,1.8-4.7,1.9-7.2   c0-2.4-0.5-4.8-1.6-7l-1.2,0.1l-2,0.2c0,0,0,0,0,0h0c2.8,4.5,2.5,10.5-1.1,14.7c-4,4.6-10.7,5.6-15.8,2.6l2.5-2.5l4.1-4.1   c0.8-0.8,1.1-1.6,1.2-2.2c0.1-0.5,0.1-0.8,0.1-0.8v-1v-0.3c0-0.2,0-0.4,0.1-0.6c0.2-1,0.9-1.8,0.9-1.8s0,0,0,0l8.1-8.1   c0.1-0.1,0-0.1-0.1-0.3c0,0-0.5-0.4-0.7-0.6c0,0,0,0,0,0c-2.9-2.5-6.4-3.7-9.9-3.7c0,0-0.1,0-0.1,0C11,8.1,6.7,9.9,3.7,13.5"></path>
</g>
</svg>